<svg xmlns="http://www.w3.org/2000/svg" width="32" height="32"><g fill="none" fill-rule="evenodd"><path d="M0 0h32v32H0z"/><path fill="#000" fill-rule="nonzero" d="M16.352 6.923c1.313 0 2.96-.915 3.94-2.136.889-1.106 1.537-2.651 1.537-4.196 0-.21-.019-.42-.056-.591-1.462.057-3.22 1.01-4.274 2.289-.833.972-1.592 2.498-1.592 4.062 0 .229.037.458.056.534.093.019.24.038.389.038zM11.726 30c1.795 0 2.59-1.24 4.83-1.24 2.275 0 2.775 1.202 4.773 1.202 1.961 0 3.275-1.87 4.515-3.7 1.387-2.098 1.961-4.158 1.998-4.253-.13-.038-3.886-1.621-3.886-6.065 0-3.852 2.96-5.588 3.127-5.721-1.96-2.9-4.94-2.976-5.754-2.976-2.202 0-3.997 1.373-5.125 1.373-1.222 0-2.831-1.296-4.737-1.296-3.627 0-7.31 3.09-7.31 8.925 0 3.624 1.37 7.457 3.054 9.937C8.654 28.284 9.912 30 11.726 30z"/></g></svg>