<svg xmlns="http://www.w3.org/2000/svg" width="32" height="32"><g fill="none" fill-rule="evenodd"><path d="M0 0h32v32H0z"/><g fill-rule="nonzero"><path fill="#4285f4" d="M29.5 16.3c0-1.11-.092-1.92-.29-2.76H16.275v5.01h7.591c-.153 1.245-.98 3.12-2.816 4.38l-.026.168 4.09 3.104.283.028C28 23.875 29.5 20.41 29.5 16.3z"/><path fill="#34a853" d="M16.276 29.5c3.719 0 6.841-1.2 9.122-3.27l-4.347-3.3c-1.163.795-2.725 1.35-4.775 1.35a8.277 8.277 0 0 1-7.837-5.61l-.162.013-4.252 3.225-.056.152c2.266 4.41 6.919 7.44 12.307 7.44z"/><path fill="#fbbc05" d="M8.439 18.67a8.16 8.16 0 0 1-.46-2.67c0-.93.169-1.83.444-2.67l-.007-.179L4.11 9.874l-.14.066C3.035 11.77 2.5 13.825 2.5 16s.536 4.23 1.47 6.06z"/><path fill="#eb4335" d="M16.276 7.72c2.586 0 4.331 1.095 5.326 2.01l3.888-3.72c-2.388-2.175-5.495-3.51-9.214-3.51-5.388 0-10.041 3.03-12.307 7.44l4.454 3.39c1.118-3.255 4.21-5.61 7.853-5.61z"/></g></g></svg>